<svg width="110" height="19" viewBox="0 0 110 19" fill="none" xmlns="http://www.w3.org/2000/svg">
<path d="M1.28 18C1.12 18 0.976 17.944 0.848 17.832C0.736 17.704 0.68 17.56 0.68 17.4V1.8C0.68 1.624 0.736 1.48 0.848 1.368C0.976 1.256 1.12 1.2 1.28 1.2H3.824C4.224 1.2 4.496 1.352 4.64 1.656L10.496 10.872V1.8C10.496 1.624 10.552 1.48 10.664 1.368C10.792 1.256 10.936 1.2 11.096 1.2H13.976C14.152 1.2 14.296 1.256 14.408 1.368C14.52 1.48 14.576 1.624 14.576 1.8V17.376C14.576 17.552 14.52 17.704 14.408 17.832C14.296 17.944 14.152 18 13.976 18H11.408C11.056 18 10.792 17.848 10.616 17.544L4.76 8.664V17.4C4.76 17.56 4.704 17.704 4.592 17.832C4.48 17.944 4.336 18 4.16 18H1.28ZM24.794 18.24C22.538 18.24 20.762 17.688 19.466 16.584C18.17 15.48 17.482 13.856 17.402 11.712C17.386 11.248 17.378 10.56 17.378 9.648C17.378 8.72 17.386 8.024 17.402 7.56C17.482 5.448 18.178 3.824 19.49 2.688C20.818 1.536 22.586 0.959999 24.794 0.959999C27.002 0.959999 28.77 1.536 30.098 2.688C31.426 3.824 32.122 5.448 32.186 7.56C32.218 8.488 32.234 9.184 32.234 9.648C32.234 10.096 32.218 10.784 32.186 11.712C32.106 13.856 31.418 15.48 30.122 16.584C28.826 17.688 27.05 18.24 24.794 18.24ZM24.794 14.784C25.674 14.784 26.37 14.52 26.882 13.992C27.41 13.464 27.69 12.656 27.722 11.568C27.754 10.64 27.77 9.984 27.77 9.6C27.77 9.184 27.754 8.528 27.722 7.632C27.69 6.544 27.41 5.736 26.882 5.208C26.354 4.68 25.658 4.416 24.794 4.416C23.93 4.416 23.234 4.68 22.706 5.208C22.194 5.736 21.914 6.544 21.866 7.632C21.85 8.08 21.842 8.736 21.842 9.6C21.842 10.448 21.85 11.104 21.866 11.568C21.914 12.656 22.194 13.464 22.706 13.992C23.218 14.52 23.914 14.784 24.794 14.784ZM35.3039 12.528C35.1279 12.528 34.9839 12.472 34.8719 12.36C34.7599 12.248 34.7039 12.104 34.7039 11.928V9.672C34.7039 9.496 34.7599 9.352 34.8719 9.24C34.9839 9.128 35.1279 9.072 35.3039 9.072H42.8159C42.9919 9.072 43.1359 9.128 43.2479 9.24C43.3759 9.352 43.4399 9.496 43.4399 9.672V11.928C43.4399 12.104 43.3759 12.248 43.2479 12.36C43.1359 12.472 42.9919 12.528 42.8159 12.528H35.3039ZM46.9831 18C46.8231 18 46.6791 17.944 46.5511 17.832C46.4391 17.704 46.3831 17.56 46.3831 17.4V1.8C46.3831 1.624 46.4391 1.48 46.5511 1.368C46.6791 1.256 46.8231 1.2 46.9831 1.2H50.1511C50.3271 1.2 50.4711 1.256 50.5831 1.368C50.6951 1.48 50.7511 1.624 50.7511 1.8V14.376H58.0231C58.1991 14.376 58.3431 14.44 58.4551 14.568C58.5671 14.68 58.6231 14.824 58.6231 15V17.4C58.6231 17.56 58.5671 17.704 58.4551 17.832C58.3431 17.944 58.1991 18 58.0231 18H46.9831ZM61.3034 18C61.1434 18 60.9994 17.944 60.8714 17.832C60.7594 17.704 60.7034 17.56 60.7034 17.4V1.8C60.7034 1.624 60.7594 1.48 60.8714 1.368C60.9994 1.256 61.1434 1.2 61.3034 1.2H64.5194C64.6954 1.2 64.8394 1.256 64.9514 1.368C65.0794 1.48 65.1434 1.624 65.1434 1.8V17.4C65.1434 17.576 65.0794 17.72 64.9514 17.832C64.8394 17.944 64.6954 18 64.5194 18H61.3034ZM69.0847 18C68.9247 18 68.7807 17.944 68.6527 17.832C68.5407 17.704 68.4847 17.56 68.4847 17.4V1.8C68.4847 1.624 68.5407 1.48 68.6527 1.368C68.7807 1.256 68.9247 1.2 69.0847 1.2H71.6767C72.0607 1.2 72.3407 1.376 72.5167 1.728L76.7407 9.288L80.9647 1.728C81.1407 1.376 81.4207 1.2 81.8047 1.2H84.3727C84.5487 1.2 84.6927 1.256 84.8047 1.368C84.9327 1.48 84.9967 1.624 84.9967 1.8V17.4C84.9967 17.576 84.9327 17.72 84.8047 17.832C84.6927 17.944 84.5487 18 84.3727 18H81.5167C81.3407 18 81.1887 17.944 81.0607 17.832C80.9487 17.72 80.8927 17.576 80.8927 17.4V8.4L78.2047 13.416C77.9967 13.784 77.7167 13.968 77.3647 13.968H76.1167C75.9087 13.968 75.7407 13.92 75.6127 13.824C75.4847 13.728 75.3727 13.592 75.2767 13.416L72.5647 8.4V17.4C72.5647 17.56 72.5087 17.704 72.3967 17.832C72.2847 17.944 72.1407 18 71.9647 18H69.0847ZM88.9597 18C88.7997 18 88.6557 17.944 88.5277 17.832C88.4157 17.704 88.3597 17.56 88.3597 17.4V1.8C88.3597 1.624 88.4157 1.48 88.5277 1.368C88.6557 1.256 88.7997 1.2 88.9597 1.2H92.1757C92.3517 1.2 92.4957 1.256 92.6077 1.368C92.7357 1.48 92.7997 1.624 92.7997 1.8V17.4C92.7997 17.576 92.7357 17.72 92.6077 17.832C92.4957 17.944 92.3517 18 92.1757 18H88.9597ZM100.437 18C100.277 18 100.133 17.944 100.005 17.832C99.8929 17.704 99.8369 17.56 99.8369 17.4V4.968H95.5649C95.4049 4.968 95.2609 4.912 95.1329 4.8C95.0209 4.672 94.9649 4.528 94.9649 4.368V1.8C94.9649 1.624 95.0209 1.48 95.1329 1.368C95.2609 1.256 95.4049 1.2 95.5649 1.2H108.477C108.653 1.2 108.797 1.256 108.909 1.368C109.021 1.48 109.077 1.624 109.077 1.8V4.368C109.077 4.544 109.021 4.688 108.909 4.8C108.797 4.912 108.653 4.968 108.477 4.968H104.205V17.4C104.205 17.56 104.149 17.704 104.037 17.832C103.925 17.944 103.781 18 103.605 18H100.437Z" fill="#CA6100"/>
</svg>
